<?xml version="1.0" standalone="no"?>
<!DOCTYPE svg PUBLIC "-//W3C//DTD SVG 1.1//EN" "http://www.w3.org/Graphics/SVG/1.1/DTD/svg11.dtd">
<svg xmlns="http://www.w3.org/2000/svg" xmlns:xlink="http://www.w3.org/1999/xlink" width="222" zoomAndPan="magnify" viewBox="0 0 222 153.750002" height="153.75" preserveAspectRatio="xMidYMid meet" version="1.0"><defs><g/></defs><g fill="#043d89" fill-opacity="1"><g transform="translate(34.426705, 63.852473)"><g><path d="M 14.09375 0 L 14.09375 -32.5 L 0.640625 -32.5 L 0.640625 -39.96875 L 36.546875 -39.96875 L 36.546875 -32.5 L 23.09375 -32.5 L 23.09375 0 Z M 14.09375 0 "/></g></g></g><g fill="#043d89" fill-opacity="1"><g transform="translate(46.218376, 84.451538)"><g><path d="M 19.234375 1.09375 C 17.054688 1.09375 14.972656 0.835938 12.984375 0.328125 C 11.003906 -0.171875 9.210938 -0.910156 7.609375 -1.890625 C 6.015625 -2.878906 4.671875 -4.101562 3.578125 -5.5625 C 2.492188 -7.03125 1.757812 -8.722656 1.375 -10.640625 L 8.015625 -13.421875 L 8.203125 -13.375 C 8.816406 -10.894531 10.085938 -9.050781 12.015625 -7.84375 C 13.941406 -6.632812 16.289062 -6.03125 19.0625 -6.03125 C 20.925781 -6.03125 22.398438 -6.273438 23.484375 -6.765625 C 24.578125 -7.265625 25.359375 -7.890625 25.828125 -8.640625 C 26.304688 -9.390625 26.546875 -10.15625 26.546875 -10.9375 C 26.546875 -11.96875 26.28125 -12.789062 25.75 -13.40625 C 25.21875 -14.03125 24.429688 -14.570312 23.390625 -15.03125 C 22.347656 -15.488281 21.070312 -15.957031 19.5625 -16.4375 L 13.515625 -18.09375 C 10.046875 -19.132812 7.394531 -20.585938 5.5625 -22.453125 C 3.726562 -24.328125 2.8125 -26.769531 2.8125 -29.78125 C 2.8125 -32.238281 3.445312 -34.304688 4.71875 -35.984375 C 6 -37.660156 7.800781 -38.925781 10.125 -39.78125 C 12.457031 -40.632812 15.207031 -41.0625 18.375 -41.0625 C 22.738281 -41.0625 26.28125 -40.113281 29 -38.21875 C 31.71875 -36.332031 33.644531 -33.585938 34.78125 -29.984375 L 27.859375 -27.609375 L 27.640625 -27.671875 C 27.316406 -29.023438 26.816406 -30.117188 26.140625 -30.953125 C 25.460938 -31.796875 24.691406 -32.441406 23.828125 -32.890625 C 22.960938 -33.335938 22.070312 -33.640625 21.15625 -33.796875 C 20.25 -33.953125 19.40625 -34.03125 18.625 -34.03125 C 16.90625 -34.03125 15.507812 -33.816406 14.4375 -33.390625 C 13.375 -32.972656 12.597656 -32.4375 12.109375 -31.78125 C 11.628906 -31.132812 11.390625 -30.460938 11.390625 -29.765625 C 11.390625 -28.753906 11.65625 -27.941406 12.1875 -27.328125 C 12.71875 -26.710938 13.410156 -26.210938 14.265625 -25.828125 C 15.117188 -25.453125 16.03125 -25.109375 17 -24.796875 L 23.640625 -23.0625 C 25.546875 -22.46875 27.234375 -21.820312 28.703125 -21.125 C 30.171875 -20.4375 31.398438 -19.640625 32.390625 -18.734375 C 33.390625 -17.835938 34.144531 -16.78125 34.65625 -15.5625 C 35.164062 -14.34375 35.421875 -12.894531 35.421875 -11.21875 C 35.421875 -9.4375 35.050781 -7.789062 34.3125 -6.28125 C 33.582031 -4.769531 32.519531 -3.460938 31.125 -2.359375 C 29.726562 -1.265625 28.03125 -0.414062 26.03125 0.1875 C 24.03125 0.789062 21.765625 1.09375 19.234375 1.09375 Z M 19.234375 1.09375 "/></g></g></g><g fill="#043d89" fill-opacity="1"><g transform="translate(72.8426, 43.229052)"><g><path d="M 15.84375 0 L 14.4375 -3.984375 L 6.03125 -3.984375 L 4.625 0 L 0.265625 0 L 7.6875 -19 L 12.96875 -19 L 20.359375 0 Z M 7.25 -7.40625 L 13.21875 -7.40625 L 10.234375 -15.859375 Z M 7.25 -7.40625 "/></g></g></g><g fill="#043d89" fill-opacity="1"><g transform="translate(93.477044, 43.229052)"><g><path d="M 2.03125 0 L 2.03125 -19 L 11.8125 -19 C 13.863281 -19 15.441406 -18.597656 16.546875 -17.796875 C 17.660156 -17.003906 18.21875 -15.804688 18.21875 -14.203125 C 18.21875 -13.554688 18.101562 -12.984375 17.875 -12.484375 C 17.644531 -11.992188 17.328125 -11.578125 16.921875 -11.234375 C 16.523438 -10.898438 16.070312 -10.632812 15.5625 -10.4375 C 15.0625 -10.238281 14.535156 -10.101562 13.984375 -10.03125 L 13.984375 -9.890625 C 14.597656 -9.835938 15.1875 -9.710938 15.75 -9.515625 C 16.3125 -9.316406 16.820312 -9.035156 17.28125 -8.671875 C 17.738281 -8.316406 18.097656 -7.875 18.359375 -7.34375 C 18.628906 -6.8125 18.765625 -6.1875 18.765625 -5.46875 C 18.765625 -4.351562 18.519531 -3.382812 18.03125 -2.5625 C 17.539062 -1.75 16.785156 -1.117188 15.765625 -0.671875 C 14.742188 -0.222656 13.421875 0 11.796875 0 Z M 6.171875 -11.0625 L 10.96875 -11.0625 C 11.507812 -11.0625 11.988281 -11.140625 12.40625 -11.296875 C 12.832031 -11.460938 13.164062 -11.726562 13.40625 -12.09375 C 13.65625 -12.457031 13.78125 -12.957031 13.78125 -13.59375 C 13.78125 -14.207031 13.65625 -14.691406 13.40625 -15.046875 C 13.15625 -15.398438 12.8125 -15.65625 12.375 -15.8125 C 11.945312 -15.96875 11.453125 -16.046875 10.890625 -16.046875 L 6.171875 -16.046875 Z M 6.171875 -2.953125 L 10.734375 -2.953125 C 11.453125 -2.953125 12.078125 -3.023438 12.609375 -3.171875 C 13.140625 -3.316406 13.550781 -3.585938 13.84375 -3.984375 C 14.144531 -4.390625 14.296875 -4.972656 14.296875 -5.734375 C 14.296875 -6.441406 14.15625 -6.988281 13.875 -7.375 C 13.59375 -7.769531 13.207031 -8.046875 12.71875 -8.203125 C 12.226562 -8.359375 11.660156 -8.4375 11.015625 -8.4375 L 6.171875 -8.4375 Z M 6.171875 -2.953125 "/></g></g></g><g fill="#043d89" fill-opacity="1"><g transform="translate(113.15668, 43.229052)"><g><path d="M 15.84375 0 L 14.4375 -3.984375 L 6.03125 -3.984375 L 4.625 0 L 0.265625 0 L 7.6875 -19 L 12.96875 -19 L 20.359375 0 Z M 7.25 -7.40625 L 13.21875 -7.40625 L 10.234375 -15.859375 Z M 7.25 -7.40625 "/></g></g></g><g fill="#043d89" fill-opacity="1"><g transform="translate(132.862601, 43.229052)"><g><path d="M 10.625 0.515625 C 8.570312 0.515625 6.8125 0.117188 5.34375 -0.671875 C 3.882812 -1.472656 2.765625 -2.617188 1.984375 -4.109375 C 1.210938 -5.609375 0.828125 -7.394531 0.828125 -9.46875 C 0.828125 -11.570312 1.207031 -13.367188 1.96875 -14.859375 C 2.738281 -16.359375 3.847656 -17.507812 5.296875 -18.3125 C 6.742188 -19.113281 8.484375 -19.515625 10.515625 -19.515625 C 11.765625 -19.515625 12.925781 -19.332031 14 -18.96875 C 15.070312 -18.613281 16.019531 -18.082031 16.84375 -17.375 C 17.664062 -16.675781 18.3125 -15.8125 18.78125 -14.78125 C 19.257812 -13.75 19.523438 -12.566406 19.578125 -11.234375 L 15.625 -10.453125 L 15.515625 -10.53125 C 15.441406 -11.53125 15.253906 -12.375 14.953125 -13.0625 C 14.660156 -13.75 14.285156 -14.300781 13.828125 -14.71875 C 13.367188 -15.132812 12.851562 -15.4375 12.28125 -15.625 C 11.707031 -15.820312 11.117188 -15.921875 10.515625 -15.921875 C 9.429688 -15.921875 8.5 -15.675781 7.71875 -15.1875 C 6.9375 -14.695312 6.335938 -13.96875 5.921875 -13 C 5.503906 -12.03125 5.296875 -10.820312 5.296875 -9.375 C 5.296875 -8.007812 5.515625 -6.859375 5.953125 -5.921875 C 6.398438 -4.984375 7.035156 -4.273438 7.859375 -3.796875 C 8.679688 -3.316406 9.664062 -3.078125 10.8125 -3.078125 C 11.601562 -3.078125 12.332031 -3.210938 13 -3.484375 C 13.664062 -3.753906 14.242188 -4.164062 14.734375 -4.71875 C 15.234375 -5.269531 15.601562 -5.96875 15.84375 -6.8125 L 19.671875 -5.703125 C 19.421875 -4.804688 19.039062 -3.976562 18.53125 -3.21875 C 18.019531 -2.457031 17.378906 -1.796875 16.609375 -1.234375 C 15.847656 -0.679688 14.960938 -0.253906 13.953125 0.046875 C 12.953125 0.359375 11.84375 0.515625 10.625 0.515625 Z M 10.625 0.515625 "/></g></g></g><g fill="#043d89" fill-opacity="1"><g transform="translate(153.218559, 43.229052)"><g><path d="M 10.625 0.515625 C 8.570312 0.515625 6.8125 0.117188 5.34375 -0.671875 C 3.882812 -1.472656 2.765625 -2.617188 1.984375 -4.109375 C 1.210938 -5.609375 0.828125 -7.394531 0.828125 -9.46875 C 0.828125 -11.570312 1.207031 -13.367188 1.96875 -14.859375 C 2.738281 -16.359375 3.847656 -17.507812 5.296875 -18.3125 C 6.742188 -19.113281 8.484375 -19.515625 10.515625 -19.515625 C 11.765625 -19.515625 12.925781 -19.332031 14 -18.96875 C 15.070312 -18.613281 16.019531 -18.082031 16.84375 -17.375 C 17.664062 -16.675781 18.3125 -15.8125 18.78125 -14.78125 C 19.257812 -13.75 19.523438 -12.566406 19.578125 -11.234375 L 15.625 -10.453125 L 15.515625 -10.53125 C 15.441406 -11.53125 15.253906 -12.375 14.953125 -13.0625 C 14.660156 -13.75 14.285156 -14.300781 13.828125 -14.71875 C 13.367188 -15.132812 12.851562 -15.4375 12.28125 -15.625 C 11.707031 -15.820312 11.117188 -15.921875 10.515625 -15.921875 C 9.429688 -15.921875 8.5 -15.675781 7.71875 -15.1875 C 6.9375 -14.695312 6.335938 -13.96875 5.921875 -13 C 5.503906 -12.03125 5.296875 -10.820312 5.296875 -9.375 C 5.296875 -8.007812 5.515625 -6.859375 5.953125 -5.921875 C 6.398438 -4.984375 7.035156 -4.273438 7.859375 -3.796875 C 8.679688 -3.316406 9.664062 -3.078125 10.8125 -3.078125 C 11.601562 -3.078125 12.332031 -3.210938 13 -3.484375 C 13.664062 -3.753906 14.242188 -4.164062 14.734375 -4.71875 C 15.234375 -5.269531 15.601562 -5.96875 15.84375 -6.8125 L 19.671875 -5.703125 C 19.421875 -4.804688 19.039062 -3.976562 18.53125 -3.21875 C 18.019531 -2.457031 17.378906 -1.796875 16.609375 -1.234375 C 15.847656 -0.679688 14.960938 -0.253906 13.953125 0.046875 C 12.953125 0.359375 11.84375 0.515625 10.625 0.515625 Z M 10.625 0.515625 "/></g></g></g><g fill="#043d89" fill-opacity="1"><g transform="translate(173.574517, 43.229052)"><g><path d="M 2.03125 0 L 2.03125 -19 L 6.3125 -19 L 6.3125 -11.390625 L 15.125 -11.390625 L 15.125 -19 L 19.390625 -19 L 19.390625 0 L 15.125 0 L 15.125 -7.859375 L 6.3125 -7.859375 L 6.3125 0 Z M 2.03125 0 "/></g></g></g><g fill="#043d89" fill-opacity="1"><g transform="translate(194.991373, 43.229052)"><g><path d="M 11.515625 -15.65625 L 8.453125 -15.65625 L 8.453125 -3.34375 L 11.515625 -3.34375 L 11.515625 0 L 1.15625 0 L 1.15625 -3.34375 L 4.171875 -3.34375 L 4.171875 -15.65625 L 1.15625 -15.65625 L 1.15625 -19 L 11.515625 -19 Z M 11.515625 -15.65625 "/></g></g></g><g fill="#043d89" fill-opacity="1"><g transform="translate(80.507826, 81.582862)"><g><path d="M 10.125 0 L 9.21875 -2.546875 L 3.859375 -2.546875 L 2.953125 0 L 0.171875 0 L 4.921875 -12.140625 L 8.28125 -12.140625 L 13.015625 0 Z M 4.625 -4.734375 L 8.4375 -4.734375 L 6.53125 -10.125 Z M 4.625 -4.734375 "/></g></g></g><g fill="#043d89" fill-opacity="1"><g transform="translate(93.698819, 81.582862)"><g><path d="M 1.296875 0 L 1.296875 -12.140625 L 4.09375 -12.140625 L 9.4375 -4.5625 L 10.109375 -3.53125 L 9.984375 -4.75 L 9.984375 -12.140625 L 12.421875 -12.140625 L 12.421875 0 L 9.65625 0 L 4.265625 -7.5625 L 3.609375 -8.609375 L 3.71875 -7.375 L 3.71875 0 Z M 1.296875 0 "/></g></g></g><g fill="#043d89" fill-opacity="1"><g transform="translate(107.449328, 81.582862)"><g/></g></g><g fill="#043d89" fill-opacity="1"><g transform="translate(112.179774, 81.582862)"><g><path d="M 6.796875 0.328125 C 5.484375 0.328125 4.359375 0.078125 3.421875 -0.421875 C 2.484375 -0.929688 1.765625 -1.664062 1.265625 -2.625 C 0.773438 -3.582031 0.53125 -4.722656 0.53125 -6.046875 C 0.53125 -7.390625 0.773438 -8.539062 1.265625 -9.5 C 1.753906 -10.457031 2.457031 -11.191406 3.375 -11.703125 C 4.300781 -12.210938 5.414062 -12.46875 6.71875 -12.46875 C 7.519531 -12.46875 8.257812 -12.351562 8.9375 -12.125 C 9.625 -11.894531 10.226562 -11.554688 10.75 -11.109375 C 11.28125 -10.660156 11.695312 -10.101562 12 -9.4375 C 12.300781 -8.78125 12.472656 -8.023438 12.515625 -7.171875 L 9.984375 -6.671875 L 9.90625 -6.734375 C 9.863281 -7.367188 9.742188 -7.90625 9.546875 -8.34375 C 9.359375 -8.78125 9.117188 -9.132812 8.828125 -9.40625 C 8.535156 -9.675781 8.207031 -9.867188 7.84375 -9.984375 C 7.476562 -10.109375 7.101562 -10.171875 6.71875 -10.171875 C 6.019531 -10.171875 5.421875 -10.015625 4.921875 -9.703125 C 4.429688 -9.390625 4.050781 -8.921875 3.78125 -8.296875 C 3.507812 -7.679688 3.375 -6.914062 3.375 -6 C 3.375 -5.113281 3.515625 -4.367188 3.796875 -3.765625 C 4.085938 -3.171875 4.492188 -2.722656 5.015625 -2.421875 C 5.546875 -2.117188 6.175781 -1.96875 6.90625 -1.96875 C 7.40625 -1.96875 7.867188 -2.050781 8.296875 -2.21875 C 8.722656 -2.394531 9.09375 -2.660156 9.40625 -3.015625 C 9.726562 -3.367188 9.96875 -3.816406 10.125 -4.359375 L 12.5625 -3.640625 C 12.40625 -3.066406 12.160156 -2.535156 11.828125 -2.046875 C 11.503906 -1.566406 11.097656 -1.148438 10.609375 -0.796875 C 10.128906 -0.441406 9.566406 -0.164062 8.921875 0.03125 C 8.273438 0.226562 7.566406 0.328125 6.796875 0.328125 Z M 6.796875 0.328125 "/></g></g></g><g fill="#043d89" fill-opacity="1"><g transform="translate(125.192743, 81.582862)"><g><path d="M 1.296875 0.015625 L 1.296875 -12.125 L 4.03125 -12.125 L 4.03125 -2.265625 L 10.421875 -2.265625 L 10.421875 0.015625 Z M 1.296875 0.015625 "/></g></g></g><g fill="#043d89" fill-opacity="1"><g transform="translate(135.984607, 81.582862)"><g><path d="M 1.296875 0 L 1.296875 -12.140625 L 10.625 -12.140625 L 10.625 -9.953125 L 4.03125 -9.953125 L 4.03125 -7.15625 L 9.453125 -7.15625 L 9.453125 -5.171875 L 4.03125 -5.171875 L 4.03125 -2.171875 L 10.765625 -2.171875 L 10.765625 0 Z M 1.296875 0 "/></g></g></g><g fill="#043d89" fill-opacity="1"><g transform="translate(147.319031, 81.582862)"><g><path d="M 1.296875 0 L 1.296875 -12.140625 L 4.796875 -12.140625 L 7.71875 -4.65625 L 8.203125 -2.875 L 8.703125 -4.65625 L 11.609375 -12.140625 L 15.109375 -12.140625 L 15.109375 0 L 12.546875 0 L 12.546875 -7.65625 L 12.609375 -9.171875 L 12.09375 -7.6875 L 9.1875 0 L 7.046875 0 L 4.140625 -7.671875 L 3.625 -9.203125 L 3.671875 -7.671875 L 3.671875 0 Z M 1.296875 0 "/></g></g></g><g fill="#043d89" fill-opacity="1"><g transform="translate(163.773867, 81.582862)"><g><path d="M 1.296875 0 L 1.296875 -12.140625 L 10.625 -12.140625 L 10.625 -9.953125 L 4.03125 -9.953125 L 4.03125 -7.15625 L 9.453125 -7.15625 L 9.453125 -5.171875 L 4.03125 -5.171875 L 4.03125 -2.171875 L 10.765625 -2.171875 L 10.765625 0 Z M 1.296875 0 "/></g></g></g><g fill="#043d89" fill-opacity="1"><g transform="translate(175.108291, 81.582862)"><g><path d="M 1.296875 0 L 1.296875 -12.140625 L 4.09375 -12.140625 L 9.4375 -4.5625 L 10.109375 -3.53125 L 9.984375 -4.75 L 9.984375 -12.140625 L 12.421875 -12.140625 L 12.421875 0 L 9.65625 0 L 4.265625 -7.5625 L 3.609375 -8.609375 L 3.71875 -7.375 L 3.71875 0 Z M 1.296875 0 "/></g></g></g><g fill="#043d89" fill-opacity="1"><g transform="translate(188.858799, 81.582862)"><g><path d="M 4.28125 0 L 4.28125 -9.859375 L 0.1875 -9.859375 L 0.1875 -12.140625 L 11.09375 -12.140625 L 11.09375 -9.859375 L 7.015625 -9.859375 L 7.015625 0 Z M 4.28125 0 "/></g></g></g><g fill="#043d89" fill-opacity="1"><g transform="translate(200.150832, 81.582862)"><g><path d="M 1.296875 0 L 1.296875 -12.140625 L 10.625 -12.140625 L 10.625 -9.953125 L 4.03125 -9.953125 L 4.03125 -7.15625 L 9.453125 -7.15625 L 9.453125 -5.171875 L 4.03125 -5.171875 L 4.03125 -2.171875 L 10.765625 -2.171875 L 10.765625 0 Z M 1.296875 0 "/></g></g></g><g fill="#8d6331" fill-opacity="1"><g transform="translate(50.814017, 118.52516)"><g><path d="M 6.140625 1.78125 C 9.3125 1.78125 13.03125 -7.328125 15.203125 -10.0625 L 15.609375 -9.953125 C 15.0625 -8.515625 14.40625 -6.640625 14.40625 -4.453125 C 14.40625 -1.34375 16.390625 0 17.640625 0 C 19.71875 0 23.671875 -3.765625 28.53125 -11.84375 C 28.53125 -12.53125 27.640625 -13.125 27.140625 -13.125 C 23.03125 -7.078125 20.859375 -4.796875 19.3125 -4.796875 C 18.828125 -4.796875 18.625 -5.15625 18.625 -5.796875 C 18.625 -7.78125 20.609375 -11.890625 21.15625 -11.984375 C 21.25 -12.078125 21.296875 -12.234375 21.296875 -12.4375 C 21.296875 -13.46875 19.421875 -14.90625 17.640625 -14.90625 C 15.203125 -14.90625 8.515625 -2.78125 6.9375 -2.78125 C 6.640625 -2.78125 6.390625 -2.96875 6.390625 -3.765625 C 6.390625 -7.53125 11.84375 -18.671875 17.1875 -18.671875 C 18.71875 -18.671875 19.8125 -18.078125 19.765625 -15.84375 C 21.046875 -16.046875 21.59375 -16.890625 21.59375 -17.875 C 21.59375 -19.71875 18.421875 -22.09375 15.75 -22.09375 C 9.75 -22.09375 1.390625 -10.59375 1.390625 -3.859375 C 1.390625 -0.984375 3.71875 1.78125 6.140625 1.78125 Z M 6.140625 1.78125 "/></g></g></g><g fill="#8d6331" fill-opacity="1"><g transform="translate(72.756099, 118.52516)"><g><path d="M 15.90625 -29.078125 C 14.46875 -29.078125 10.203125 -23.078125 6.4375 -15.84375 C 5.25 -15.796875 4.265625 -15.75 3.765625 -15.75 C 3.515625 -15.40625 3.46875 -15.0625 3.46875 -14.703125 C 3.46875 -13.8125 4.0625 -13.125 5.046875 -13.078125 C 2.125 -7.078125 -0.203125 -0.640625 -0.203125 3.5625 C -0.203125 7.03125 2.03125 9.953125 4.65625 9.953125 C 9.109375 9.953125 12.6875 -1.34375 12.6875 -8.671875 C 12.6875 -10.5 12.4375 -12.140625 11.984375 -13.375 C 12.875 -13.421875 13.8125 -13.421875 14.65625 -13.421875 C 15.75 -13.421875 16.734375 -13.421875 17.390625 -13.328125 C 17.484375 -13.46875 17.640625 -13.765625 17.640625 -14.109375 C 17.640625 -15.0625 17.03125 -16.203125 15.109375 -16.203125 C 14.21875 -16.203125 12.875 -16.140625 11.4375 -16.09375 C 13.875 -20.65625 16.546875 -24.46875 18.921875 -26.15625 C 19.125 -26.296875 19.21875 -26.453125 19.21875 -26.703125 C 19.21875 -27.6875 17.53125 -29.078125 15.90625 -29.078125 Z M 10.453125 -10.703125 C 10.453125 -4.5 7.03125 6.484375 4.90625 6.484375 C 4.453125 6.484375 4.265625 6.046875 4.265625 5.15625 C 4.265625 0.9375 6.734375 -6.59375 10 -13.28125 C 10.0625 -13.28125 10.109375 -13.28125 10.15625 -13.328125 C 10.359375 -12.578125 10.453125 -11.6875 10.453125 -10.703125 Z M 10.453125 -10.703125 "/></g></g></g><g fill="#8d6331" fill-opacity="1"><g transform="translate(87.219055, 118.52516)"><g><path d="M 15.90625 -29.078125 C 14.46875 -29.078125 10.203125 -23.078125 6.4375 -15.84375 C 5.25 -15.796875 4.265625 -15.75 3.765625 -15.75 C 3.515625 -15.40625 3.46875 -15.0625 3.46875 -14.703125 C 3.46875 -13.8125 4.0625 -13.125 5.046875 -13.078125 C 2.125 -7.078125 -0.203125 -0.640625 -0.203125 3.5625 C -0.203125 7.03125 2.03125 9.953125 4.65625 9.953125 C 9.109375 9.953125 12.6875 -1.34375 12.6875 -8.671875 C 12.6875 -10.5 12.4375 -12.140625 11.984375 -13.375 C 12.875 -13.421875 13.8125 -13.421875 14.65625 -13.421875 C 15.75 -13.421875 16.734375 -13.421875 17.390625 -13.328125 C 17.484375 -13.46875 17.640625 -13.765625 17.640625 -14.109375 C 17.640625 -15.0625 17.03125 -16.203125 15.109375 -16.203125 C 14.21875 -16.203125 12.875 -16.140625 11.4375 -16.09375 C 13.875 -20.65625 16.546875 -24.46875 18.921875 -26.15625 C 19.125 -26.296875 19.21875 -26.453125 19.21875 -26.703125 C 19.21875 -27.6875 17.53125 -29.078125 15.90625 -29.078125 Z M 10.453125 -10.703125 C 10.453125 -4.5 7.03125 6.484375 4.90625 6.484375 C 4.453125 6.484375 4.265625 6.046875 4.265625 5.15625 C 4.265625 0.9375 6.734375 -6.59375 10 -13.28125 C 10.0625 -13.28125 10.109375 -13.28125 10.15625 -13.328125 C 10.359375 -12.578125 10.453125 -11.6875 10.453125 -10.703125 Z M 10.453125 -10.703125 "/></g></g></g><g fill="#8d6331" fill-opacity="1"><g transform="translate(101.68201, 118.52516)"><g><path d="M 19.21875 -24.265625 C 20.015625 -24.265625 20.703125 -24.8125 20.703125 -25.359375 C 20.15625 -25.703125 16.4375 -27.890625 14.515625 -31 C 13.578125 -31 12.078125 -29.96875 12.078125 -29.03125 C 12.078125 -26.703125 17.484375 -24.265625 19.21875 -24.265625 Z M 23.1875 -13.125 C 18.421875 -6.09375 12.1875 -2.078125 8.765625 -2.078125 C 7.125 -2.078125 6.4375 -3.125 6.4375 -4.453125 L 6.4375 -4.609375 C 12.375 -6.34375 19.46875 -13.515625 19.46875 -17.640625 C 19.46875 -19.859375 17.390625 -21.890625 14.90625 -21.890625 C 9.0625 -21.890625 1.484375 -10.59375 1.484375 -4.609375 C 1.484375 -0.984375 4.3125 1.640625 7.875 1.640625 C 12.375 1.640625 17.9375 -1.984375 24.5625 -11.84375 C 24.5625 -12.53125 23.671875 -13.125 23.1875 -13.125 Z M 15.84375 -18.53125 C 16.4375 -18.53125 16.6875 -18.234375 16.6875 -17.6875 C 16.6875 -15.25 11.046875 -8.625 6.9375 -7.125 C 8.421875 -11.984375 13.171875 -18.53125 15.84375 -18.53125 Z M 15.84375 -18.53125 "/></g></g></g><g fill="#8d6331" fill-opacity="1"><g transform="translate(26.597441, 116.924789)"><g><path d="M 13.171875 3.5625 C 21.125 3.5625 29.625 -4.671875 35.34375 -13.28125 C 35.34375 -14.0625 34.34375 -14.734375 33.796875 -14.734375 C 28.0625 -6.609375 20.515625 -0.9375 13.453125 -0.9375 C 9.5625 -0.9375 7.890625 -2.78125 7.890625 -6.109375 C 7.890625 -16.84375 20.890625 -32.234375 27.515625 -32.234375 C 28.953125 -32.234375 29.84375 -31.40625 29.84375 -29.84375 C 29.84375 -26.515625 25.625 -20.953125 22.671875 -19.28125 C 23.453125 -18.78125 24.34375 -18.5625 25.28125 -18.5625 C 29.515625 -18.5625 34.34375 -23.390625 34.34375 -28.125 C 34.34375 -32.84375 29.5625 -35.5625 25.515625 -35.5625 C 15.5 -35.5625 2.28125 -18.84375 2.28125 -7.609375 C 2.28125 -0.9375 7.28125 3.5625 13.171875 3.5625 Z M 13.171875 3.5625 "/></g></g></g></svg>